<svg width="256" height="256" viewBox="0 0 256 256" fill="none" xmlns="http://www.w3.org/2000/svg">
  <!-- 灯泡主体 -->
  <path d="M128 32C96 32 72 56 72 88C72 104 80 118 92 128V152C92 160.8 99.2 168 108 168H148C156.8 168 164 160.8 164 152V128C176 118 184 104 184 88C184 56 160 32 128 32Z" fill="#FFD700" stroke="#FFA500" stroke-width="4"/>
  
  <!-- 灯泡内部发光效果 -->
  <path d="M128 40C100 40 80 60 80 88C80 108 88 120 96 128V148C96 154.6 101.4 160 108 160H148C154.6 160 160 154.6 160 148V128C168 120 176 108 176 88C176 60 156 40 128 40Z" fill="#FFFF99" opacity="0.8"/>
  
  <!-- 灯泡螺纹 -->
  <rect x="108" y="168" width="40" height="8" fill="#C0C0C0" rx="2"/>
  <rect x="108" y="176" width="40" height="8" fill="#C0C0C0" rx="2"/>
  
  <!-- 灯泡底座 -->
  <rect x="100" y="184" width="56" height="16" fill="#808080" rx="4"/>
  
  <!-- 发光效果 -->
  <circle cx="128" cy="100" r="40" fill="#FFFF00" opacity="0.3"/>
  <circle cx="128" cy="100" r="25" fill="#FFFF00" opacity="0.2"/>
  
  <!-- 创意元素 - 小星星 -->
  <path d="M80 60L84 68L92 68L86 74L88 82L80 78L72 82L74 74L68 68L76 68L80 60Z" fill="#FFD700"/>
  <path d="M176 60L180 68L188 68L182 74L184 82L176 78L168 82L170 74L164 68L172 68L176 60Z" fill="#FFD700"/>
  <path d="M60 120L64 128L72 128L66 134L68 142L60 138L52 142L54 134L48 128L56 128L60 120Z" fill="#FFD700"/>
  <path d="M196 120L200 128L208 128L202 134L204 142L196 138L188 142L190 134L184 128L192 128L196 120Z" fill="#FFD700"/>
  
  <!-- 节日元素 - 小彩带 -->
  <path d="M40 100C40 100 50 90 60 100C70 110 80 100 80 100" stroke="#FF69B4" stroke-width="3" fill="none"/>
  <path d="M176 100C176 100 186 90 196 100C206 110 216 100 216 100" stroke="#00BFFF" stroke-width="3" fill="none"/>
</svg>
